<svg width="136" height="37" viewBox="0 0 136 37" fill="none" xmlns="http://www.w3.org/2000/svg">
<path d="M52.4402 14.222C50.7058 14.222 49.8477 15.587 49.454 16.4674C49.2341 16.959 49.1725 17.3477 48.9941 17.3477C48.7428 17.3477 48.9228 17.0099 48.7171 16.2607C48.4465 15.2749 47.6307 14.222 45.8974 14.222C44.0751 14.222 43.295 15.7617 42.925 16.6077C42.672 17.186 42.6717 17.3477 42.4771 17.3477C42.1952 17.3477 42.4288 16.8883 42.5555 16.3482C42.8054 15.2847 42.6155 14.4721 42.6155 14.4721H39.7268V25.3342H43.6697C43.6697 25.3342 43.6697 20.7947 43.6697 19.9298C43.6697 18.8639 44.1156 17.5113 44.8799 17.5113C45.7631 17.5113 45.9398 18.1894 45.9398 19.4453C45.9398 20.584 45.9398 25.3366 45.9398 25.3366H49.8986C49.8986 25.3366 49.8986 20.7695 49.8986 19.9298C49.8986 18.981 50.2858 17.5113 51.1146 17.5113C52.01 17.5113 52.1686 18.4641 52.1686 19.4453C52.1686 20.4266 52.1686 25.3342 52.1686 25.3342H56.0561C56.0561 25.3342 56.0561 21.0303 56.0561 18.9466C56.0561 16.1119 55.0569 14.222 52.4402 14.222Z" fill="#6B7280"/>
<path d="M119.365 14.222C117.631 14.222 116.773 15.587 116.379 16.4674C116.159 16.959 116.098 17.3477 115.919 17.3477C115.668 17.3477 115.836 16.9185 115.642 16.2607C115.353 15.2801 114.634 14.222 112.822 14.222C111 14.222 110.22 15.7617 109.85 16.6077C109.597 17.186 109.597 17.3477 109.402 17.3477C109.12 17.3477 109.354 16.8883 109.481 16.3482C109.73 15.2847 109.541 14.4721 109.541 14.4721H106.652V25.3342H110.595C110.595 25.3342 110.595 20.7947 110.595 19.9298C110.595 18.8639 111.041 17.5113 111.805 17.5113C112.688 17.5113 112.865 18.1894 112.865 19.4453C112.865 20.584 112.865 25.3366 112.865 25.3366H116.823C116.823 25.3366 116.823 20.7695 116.823 19.9298C116.823 18.981 117.211 17.5113 118.04 17.5113C118.935 17.5113 119.094 18.4641 119.094 19.4453C119.094 20.4266 119.094 25.3342 119.094 25.3342H122.981C122.981 25.3342 122.981 21.0303 122.981 18.9466C122.981 16.1119 121.982 14.222 119.365 14.222Z" fill="#6B7280"/>
<path d="M61.8287 22.7954C60.8858 23.0132 60.3971 22.7228 60.3971 22.0978C60.3971 21.2417 61.2825 20.8989 62.5465 20.8989C63.1036 20.8989 63.6275 20.9471 63.6275 20.9471C63.6275 21.3135 62.8321 22.5639 61.8287 22.7954ZM62.7886 14.2244C59.7683 14.2244 57.6011 15.3348 57.6011 15.3348V18.5988C57.6011 18.5988 59.9944 17.2228 61.9359 17.2228C63.4856 17.2228 63.676 18.0586 63.6054 18.7523C63.6054 18.7523 63.1586 18.634 61.7946 18.634C58.581 18.634 56.9587 20.0945 56.9587 22.4365C56.9587 24.658 58.782 25.5867 60.318 25.5867C62.5595 25.5867 63.5448 24.0804 63.8476 23.3658C64.0578 22.87 64.096 22.5359 64.2848 22.5359C64.4998 22.5359 64.4275 22.7755 64.4171 23.269C64.3988 24.1331 64.4395 24.7863 64.5765 25.3365H67.5483V19.9909C67.5483 16.6533 66.3675 14.2244 62.7886 14.2244Z" fill="#6B7280"/>
<path d="M74.0432 25.3366H77.9862V11.1838H74.0432V25.3366Z" fill="#6B7280"/>
<path d="M82.3262 19.9054C82.3262 18.9288 83.2335 18.0402 84.8993 18.0402C86.7143 18.0402 88.1741 18.9141 88.5016 19.1125V15.3348C88.5016 15.3348 87.3483 14.2244 84.5136 14.2244C81.5254 14.2244 79.037 15.9729 79.037 19.7364C79.037 23.4998 81.2953 25.5867 84.5056 25.5867C87.0131 25.5867 88.5079 24.2089 88.5079 24.2089V20.6207C88.035 20.8854 86.7173 21.7998 84.9174 21.7998C83.0115 21.7998 82.3262 20.9231 82.3262 19.9054Z" fill="#6B7280"/>
<path d="M96.4888 14.2244C94.2063 14.2244 93.3381 16.3874 93.1628 16.7631C92.9874 17.1386 92.9008 17.3546 92.7572 17.35C92.5081 17.3419 92.6818 16.889 92.7789 16.5956C92.9625 16.0416 93.3515 14.5879 93.3515 12.8012C93.3515 11.5893 93.1876 11.1837 93.1876 11.1837H89.7838V25.3365H93.7268C93.7268 25.3365 93.7268 20.8124 93.7268 19.9323C93.7268 19.0519 94.0781 17.5136 95.0714 17.5136C95.8942 17.5136 96.1517 18.1232 96.1517 19.3508C96.1517 20.5783 96.1517 25.3365 96.1517 25.3365H100.095C100.095 25.3365 100.095 22.0261 100.095 19.5871C100.095 16.7988 99.6326 14.2244 96.4888 14.2244Z" fill="#6B7280"/>
<path d="M101.376 14.4869V25.3366H105.319V14.4869C105.319 14.4869 104.657 14.8746 103.352 14.8746C102.047 14.8746 101.376 14.4869 101.376 14.4869Z" fill="#6B7280"/>
<path d="M103.336 11.0739C102.003 11.0739 100.922 11.7791 100.922 12.6492C100.922 13.5191 102.003 14.2244 103.336 14.2244C104.669 14.2244 105.75 13.5191 105.75 12.6492C105.75 11.7791 104.669 11.0739 103.336 11.0739Z" fill="#6B7280"/>
<path d="M68.8243 14.4869V25.3366H72.7672V14.4869C72.7672 14.4869 72.1045 14.8746 70.7998 14.8746C69.4952 14.8746 68.8243 14.4869 68.8243 14.4869Z" fill="#6B7280"/>
<path d="M70.784 11.0739C69.4512 11.0739 68.3705 11.7791 68.3705 12.6492C68.3705 13.5191 69.4512 14.2244 70.784 14.2244C72.1171 14.2244 73.1977 13.5191 73.1977 12.6492C73.1977 11.7791 72.1171 11.0739 70.784 11.0739Z" fill="#6B7280"/>
<path d="M129.733 23.0024C128.828 23.0024 128.163 21.8556 128.163 20.2577C128.163 18.7059 128.846 17.5136 129.702 17.5136C130.799 17.5136 131.267 18.5198 131.267 20.2577C131.267 22.0656 130.835 23.0024 129.733 23.0024ZM130.815 14.222C128.788 14.222 127.859 15.7419 127.455 16.6077C127.189 17.1798 127.202 17.3477 127.007 17.3477C126.726 17.3477 126.959 16.8883 127.086 16.3482C127.336 15.2847 127.146 14.4721 127.146 14.4721H124.257V28.334H128.2C128.2 28.334 128.2 26.0657 128.2 23.9391C128.667 24.7306 129.531 25.5764 130.863 25.5764C133.715 25.5764 135.15 23.164 135.15 19.9046C135.15 16.2104 133.432 14.222 130.815 14.222Z" fill="#6B7280"/>
<path d="M25.797 17.5029C26.0622 17.4713 26.3162 17.4698 26.5496 17.5029C26.6847 17.1931 26.708 16.659 26.5864 16.0773C26.4058 15.2128 26.1614 14.6896 25.6562 14.771C25.1511 14.8524 25.1324 15.4788 25.313 16.3434C25.4146 16.8297 25.5955 17.2453 25.797 17.5029Z" fill="#6B7280"/>
<path d="M21.4601 18.1871C21.8215 18.3457 22.0437 18.4509 22.1306 18.3589C22.1865 18.3017 22.1699 18.1924 22.0836 18.0514C21.9052 17.7601 21.5381 17.4649 21.1488 17.2989C20.3526 16.9562 19.4031 17.0702 18.6705 17.5965C18.4288 17.7737 18.1995 18.0192 18.2323 18.1682C18.243 18.2164 18.2792 18.2528 18.364 18.2646C18.5634 18.2874 19.2601 17.9351 20.0627 17.886C20.6292 17.8513 21.0986 18.0285 21.4601 18.1871Z" fill="#6B7280"/>
<path d="M20.733 18.6019C20.2622 18.6762 20.0025 18.8315 19.8358 18.9758C19.6936 19.1 19.6057 19.2375 19.6064 19.3342C19.6067 19.3802 19.6267 19.4067 19.6424 19.4201C19.6639 19.4389 19.6893 19.4494 19.7198 19.4494C19.8262 19.4494 20.0643 19.3538 20.0643 19.3538C20.7195 19.1193 21.1516 19.1478 21.5799 19.1966C21.8166 19.2231 21.9284 19.2378 21.9803 19.1567C21.9958 19.1334 22.0143 19.083 21.9669 19.0062C21.8566 18.8273 21.3813 18.5249 20.733 18.6019" fill="#6B7280"/>
<path d="M24.3326 20.1249C24.6522 20.282 25.0041 20.2203 25.1187 19.9872C25.2332 19.7542 25.067 19.4379 24.7473 19.2807C24.4277 19.1238 24.0758 19.1853 23.9611 19.4184C23.8467 19.6516 24.0129 19.9677 24.3326 20.1249Z" fill="#6B7280"/>
<path d="M26.3875 18.3293C26.1279 18.3248 25.9126 18.61 25.9065 18.9661C25.9004 19.3223 26.1061 19.6144 26.3657 19.6189C26.6254 19.6233 26.8409 19.3381 26.8468 18.9821C26.8529 18.6259 26.6472 18.3336 26.3875 18.3293Z" fill="#6B7280"/>
<path d="M8.94529 24.7503C8.88069 24.6694 8.77457 24.6941 8.6718 24.718C8.60002 24.7348 8.5187 24.7536 8.42954 24.7521C8.23855 24.7484 8.07682 24.6669 7.98598 24.5273C7.86769 24.3457 7.87453 24.0747 8.00516 23.7648C8.02273 23.7228 8.04349 23.6764 8.06609 23.6258C8.27428 23.1585 8.6229 22.3764 8.23154 21.6313C7.93697 21.0704 7.45658 20.721 6.87898 20.6478C6.32448 20.5775 5.7536 20.783 5.38946 21.1847C4.81498 21.8186 4.7252 22.681 4.8363 22.9858C4.87704 23.0973 4.94069 23.1282 4.98699 23.1345C5.0847 23.1476 5.22923 23.0766 5.31978 22.8329C5.32625 22.8154 5.33487 22.7883 5.34567 22.7537C5.38607 22.625 5.46118 22.3852 5.58422 22.193C5.73258 21.9612 5.96365 21.8017 6.23487 21.7435C6.51119 21.6843 6.79359 21.7371 7.02999 21.8919C7.43248 22.1552 7.58744 22.6482 7.41562 23.1188C7.32682 23.3622 7.18252 23.8274 7.21438 24.2098C7.27869 24.9835 7.75461 25.2943 8.18224 25.3274C8.598 25.3429 8.88856 25.1097 8.96207 24.939C9.00546 24.8382 8.96884 24.7768 8.9453 24.7503" fill="#6B7280"/>
<path d="M12.8977 10.5384C14.2537 8.97147 15.923 7.60922 17.4183 6.84431C17.4701 6.81774 17.5249 6.87399 17.4969 6.92469C17.3781 7.13972 17.1496 7.60018 17.0771 7.94941C17.0658 8.00384 17.125 8.04477 17.1709 8.01348C18.1012 7.37936 19.7196 6.69987 21.1391 6.61252C21.2 6.60874 21.2295 6.68697 21.181 6.72419C20.9651 6.88984 20.729 7.11895 20.5565 7.35074C20.5271 7.39017 20.5548 7.44699 20.604 7.44728C21.6007 7.45438 23.0058 7.80319 23.9217 8.31689C23.9837 8.35157 23.9395 8.47156 23.8702 8.45569C22.4845 8.13819 20.2163 7.89721 17.8602 8.47188C15.7568 8.98498 14.1513 9.77703 12.9802 10.6288C12.9209 10.672 12.8499 10.5938 12.8977 10.5384L12.8977 10.5384ZM19.6512 25.72C19.6514 25.7203 19.6515 25.7209 19.6516 25.7209C19.6519 25.7213 19.652 25.7221 19.6525 25.7225C19.652 25.7217 19.6516 25.7209 19.6512 25.72ZM25.2432 26.3801C25.2833 26.3632 25.3111 26.3174 25.3063 26.2719C25.3007 26.2158 25.2507 26.175 25.1947 26.1808C25.1947 26.1808 22.3008 26.609 19.5671 25.6084C19.8649 24.6406 20.6567 24.99 21.8534 25.0866C24.0105 25.2152 25.9437 24.9001 27.3725 24.4899C28.6107 24.1348 30.2367 23.4342 31.4998 22.4372C31.9258 23.3731 32.0762 24.4029 32.0762 24.4029C32.0762 24.4029 32.406 24.344 32.6815 24.5135C32.942 24.6738 33.133 25.0069 33.0025 25.8682C32.7369 27.4773 32.0529 28.7833 30.9035 29.9848C30.2037 30.7379 29.3542 31.3928 28.3823 31.869C27.8661 32.1401 27.3165 32.3747 26.7359 32.5642C22.4024 33.9795 17.9667 32.4236 16.5368 29.0822C16.4228 28.831 16.3263 28.5681 16.2502 28.293C15.6408 26.0911 16.1581 23.4494 17.7751 21.7865C17.7753 21.7863 17.775 21.7856 17.7751 21.7856C17.8748 21.6798 17.9765 21.555 17.9765 21.3981C17.9765 21.2669 17.8932 21.1284 17.8208 21.0302C17.255 20.2097 15.2954 18.8114 15.6887 16.1055C15.9712 14.1614 17.6713 12.7924 19.2564 12.8735C19.3904 12.8805 19.5246 12.8886 19.6582 12.8965C20.3451 12.9373 20.9443 13.0254 21.5098 13.0489C22.4562 13.0899 23.3073 12.9522 24.3153 12.1124C24.6553 11.829 24.9279 11.5835 25.3892 11.5053C25.4377 11.497 25.5583 11.4537 25.7994 11.4651C26.0454 11.4782 26.2797 11.5458 26.4902 11.6859C27.2984 12.2237 27.4129 13.526 27.4549 14.4788C27.4787 15.0226 27.5446 16.3384 27.567 16.7162C27.6184 17.5798 27.8455 17.7016 28.3047 17.8528C28.5631 17.938 28.8029 18.0013 29.1562 18.1005C30.2259 18.4008 30.8602 18.7055 31.2598 19.0969C31.4983 19.3414 31.6092 19.6014 31.6435 19.8492C31.7695 20.7694 30.929 21.9061 28.7039 22.939C26.2716 24.0678 23.3208 24.3537 21.282 24.1267C21.1257 24.1093 20.5696 24.0463 20.5677 24.046C18.9369 23.8264 18.0066 25.934 18.9853 27.3779C19.6162 28.3084 21.3344 28.9141 23.0534 28.9144C26.995 28.9148 30.0245 27.2317 31.1514 25.7781C31.1852 25.7346 31.1885 25.7299 31.2416 25.6495C31.2971 25.566 31.2514 25.5199 31.1823 25.5672C30.2615 26.1972 26.1719 28.6984 21.7975 27.9459C21.7975 27.9459 21.266 27.8585 20.7808 27.6698C20.3952 27.5198 19.5882 27.1485 19.4902 26.3206C23.0203 27.4123 25.2432 26.3802 25.2432 26.3802V26.3801ZM5.85308 17.9905C4.62535 18.2293 3.54325 18.9251 2.88159 19.8862C2.48606 19.5564 1.74926 18.9178 1.61916 18.669C0.562726 16.6632 2.77205 12.7631 4.31543 10.5606C8.12966 5.11755 14.1036 0.997582 16.869 1.74514C17.3187 1.87238 18.8075 3.5987 18.8075 3.5987C18.8075 3.5987 16.0433 5.13253 13.4797 7.27051C10.0255 9.9302 7.41621 13.7958 5.85308 17.9905ZM7.91614 27.1953C7.7303 27.227 7.54077 27.2397 7.3496 27.235C5.50233 27.1855 3.50693 25.5224 3.30864 23.5502C3.08949 21.3702 4.20335 19.6925 6.17551 19.2947C6.41128 19.2472 6.69622 19.2198 7.00348 19.2358C8.10846 19.2963 9.73683 20.1447 10.1088 22.552C10.4383 24.6839 9.91501 26.8544 7.91614 27.1953V27.1953ZM32.94 23.3351C32.9242 23.2792 32.8211 22.9024 32.6795 22.4484C32.5379 21.9941 32.3912 21.6745 32.3912 21.6745C32.9593 20.8239 32.9694 20.0633 32.8939 19.6323C32.8132 19.0983 32.5909 18.6432 32.1428 18.1728C31.6946 17.7024 30.7782 17.2206 29.4901 16.8589C29.3428 16.8175 28.857 16.6842 28.8143 16.6713C28.8109 16.6434 28.7787 15.078 28.7495 14.4061C28.7281 13.9203 28.6864 13.1619 28.4511 12.4149C28.1707 11.4038 27.682 10.5191 27.0722 9.95304C28.7553 8.20849 29.8059 6.28657 29.8034 4.63781C29.7985 1.46709 25.9046 0.507761 21.1058 2.49478C21.1008 2.49684 20.0964 2.92276 20.0891 2.92632C20.0845 2.92202 18.251 1.1229 18.2234 1.09887C12.7522 -3.6733 -4.35399 15.3406 1.11519 19.9586L2.31042 20.9712C2.00039 21.7743 1.87856 22.6945 1.97808 23.6841C2.10581 24.955 2.76139 26.1733 3.82398 27.1145C4.83267 28.0083 6.15888 28.5739 7.44587 28.5728C9.57416 33.4774 14.4371 36.4862 20.1388 36.6555C26.255 36.8372 31.3891 33.9673 33.5405 28.812C33.6812 28.4502 34.2784 26.82 34.2784 25.3809C34.2784 23.9346 33.4607 23.3351 32.94 23.3351Z" fill="#6B7280"/>
</svg>
